# xmcd
#
# Track frame offsets:
#	150
#	17595
#	28260
#	40500
#	63775
#	80537
#	94340
#	107615
#	118337
#	132242
#	149412
#	164617
#	177337
#	190887
#	206492
#	223050
#
# Disc length: 3182 seconds
#
# Revision: 1
# Processed by: cddbd v1.5.1PL0 Copyright (c) Steve Scherf et al.
# Submitted via: CDex 1.50Beta5
#
DISCID=e70c6c10
DTITLE=シーナ&ロケット - ベリー・ベスト・オブ・シーナ&ロケット
DYEAR=2000
DGENRE=Rock
TTITLE0=ユー・メイ・ドリーム
TTITLE1=You Really Got Me
TTITLE2=浮かびのピーチガール
TTITLE3=ベイビー・メイビー
TTITLE4=ピンナップ・ベイビー・ブルース
TTITLE5=ワンナイト・スタンド
TTITLE6=Radio Junk
TTITLE7=クレイジー・クール・キャット
TTITLE8=レモンティー
TTITLE9=オ・マ・エ・ガ・ホ・シ・イ
TTITLE10=恋のダンス天国
TTITLE11=Dead Guitar
TTITLE12=I Spy
TTITLE13=センチメンタル・フール
TTITLE14=グッドラック
TTITLE15=You May Dream
EXTD=
EXTT0=
EXTT1=
EXTT2=
EXTT3=
EXTT4=
EXTT5=
EXTT6=
EXTT7=
EXTT8=
EXTT9=
EXTT10=
EXTT11=
EXTT12=
EXTT13=
EXTT14=
EXTT15=
PLAYORDER=
